# Blender 3.5.1
# www.blender.org
o clocktower-ENGINE
v -0.061702 0.020200 0.013477
v -0.061702 0.020200 -1.086523
v 0.152897 0.020200 -1.065387
v 0.359250 0.020200 -1.002790
v 0.549425 0.020200 -0.901140
v 0.716115 0.020200 -0.764340
v 0.852915 0.020200 -0.597650
v 0.954565 0.020200 -0.407475
v 1.017162 0.020200 -0.201122
v 1.038298 0.020200 0.013477
v 1.017162 0.020200 0.228076
v 0.954565 0.020200 0.434429
v 0.852915 0.020200 0.624604
v 0.716115 0.020200 0.791295
v 0.549425 0.020200 0.928094
v 0.359250 0.020200 1.029744
v 0.152897 0.020200 1.092341
v -0.061702 0.020200 1.113477
v -0.276301 0.020200 1.092341
v -0.482654 0.020200 1.029744
v -0.672829 0.020200 0.928094
v -0.839520 0.020200 0.791295
v -0.976319 0.020200 0.624604
v -1.077969 0.020200 0.434429
v -1.140566 0.020200 0.228076
v -1.161702 0.020200 0.013477
v -1.140566 0.020200 -0.201122
v -1.077969 0.020200 -0.407475
v -0.976319 0.020200 -0.597650
v -0.839520 0.020200 -0.764340
v -0.672829 0.020200 -0.901140
v -0.482654 0.020200 -1.002790
v -0.276301 0.020200 -1.065387
v -0.061702 2.020200 0.013477
vn -0.0000 -1.0000 -0.0000
vn 0.0860 0.4801 -0.8730
vn 0.2546 0.4801 -0.8394
vn 0.4135 0.4801 -0.7736
vn 0.5565 0.4801 -0.6781
vn 0.6781 0.4801 -0.5565
vn 0.7736 0.4801 -0.4135
vn 0.8394 0.4801 -0.2546
vn 0.8730 0.4801 -0.0860
vn 0.8730 0.4801 0.0860
vn 0.8394 0.4801 0.2546
vn 0.7736 0.4801 0.4135
vn 0.6781 0.4801 0.5565
vn 0.5565 0.4801 0.6781
vn 0.4135 0.4801 0.7736
vn 0.2546 0.4801 0.8394
vn 0.0860 0.4801 0.8730
vn -0.0860 0.4801 0.8730
vn -0.2546 0.4801 0.8394
vn -0.4135 0.4801 0.7736
vn -0.5565 0.4801 0.6781
vn -0.6781 0.4801 0.5565
vn -0.7736 0.4801 0.4135
vn -0.8394 0.4801 0.2546
vn -0.8730 0.4801 0.0860
vn -0.8730 0.4801 -0.0860
vn -0.8394 0.4801 -0.2546
vn -0.7736 0.4801 -0.4135
vn -0.6781 0.4801 -0.5565
vn -0.5565 0.4801 -0.6781
vn -0.4135 0.4801 -0.7736
vn -0.2546 0.4801 -0.8394
vn -0.0860 0.4801 -0.8730
vt 0.750000 0.250000
vt 0.750000 0.490000
vt 0.250000 0.490000
vt 0.796822 0.485388
vt 0.296822 0.485388
vt 0.841844 0.471731
vt 0.341844 0.471731
vt 0.883337 0.449553
vt 0.383337 0.449553
vt 0.919706 0.419706
vt 0.419706 0.419706
vt 0.949553 0.383337
vt 0.449553 0.383337
vt 0.971731 0.341844
vt 0.471731 0.341844
vt 0.985388 0.296822
vt 0.485388 0.296822
vt 0.990000 0.250000
vt 0.490000 0.250000
vt 0.985388 0.203178
vt 0.485388 0.203178
vt 0.971731 0.158156
vt 0.471731 0.158156
vt 0.949553 0.116663
vt 0.449553 0.116663
vt 0.919706 0.080294
vt 0.419706 0.080294
vt 0.883337 0.050447
vt 0.383337 0.050447
vt 0.841844 0.028269
vt 0.341844 0.028269
vt 0.796822 0.014612
vt 0.296822 0.014612
vt 0.750000 0.010000
vt 0.250000 0.010000
vt 0.703178 0.014612
vt 0.203178 0.014612
vt 0.658156 0.028269
vt 0.158156 0.028269
vt 0.616663 0.050447
vt 0.116663 0.050447
vt 0.580294 0.080294
vt 0.080294 0.080294
vt 0.550447 0.116663
vt 0.050447 0.116663
vt 0.528269 0.158156
vt 0.028269 0.158156
vt 0.514612 0.203178
vt 0.014612 0.203178
vt 0.510000 0.250000
vt 0.010000 0.250000
vt 0.514612 0.296822
vt 0.014612 0.296822
vt 0.528269 0.341844
vt 0.028269 0.341844
vt 0.550447 0.383337
vt 0.050447 0.383337
vt 0.580294 0.419706
vt 0.080294 0.419706
vt 0.616663 0.449553
vt 0.116663 0.449553
vt 0.658156 0.471731
vt 0.158156 0.471731
vt 0.703178 0.485388
vt 0.203178 0.485388
vt 0.250000 0.250000
vc 78.0 78.0 78.0
vc 78.0 78.0 78.0
vc 78.0 78.0 78.0
vc 78.0 78.0 78.0
vc 78.0 78.0 78.0
vc 78.0 78.0 78.0
vc 78.0 78.0 78.0
vc 78.0 78.0 78.0
vc 78.0 78.0 78.0
vc 78.0 78.0 78.0
vc 78.0 78.0 78.0
vc 78.0 78.0 78.0
vc 78.0 78.0 78.0
vc 78.0 78.0 78.0
vc 78.0 78.0 78.0
vc 78.0 78.0 78.0
vc 78.0 78.0 78.0
vc 78.0 78.0 78.0
vc 78.0 78.0 78.0
vc 78.0 78.0 78.0
vc 78.0 78.0 78.0
vc 78.0 78.0 78.0
vc 78.0 78.0 78.0
vc 78.0 78.0 78.0
vc 78.0 78.0 78.0
vc 78.0 78.0 78.0
vc 78.0 78.0 78.0
vc 78.0 78.0 78.0
vc 78.0 78.0 78.0
vc 78.0 78.0 78.0
vc 78.0 78.0 78.0
vc 78.0 78.0 78.0
vc 78.0 78.0 78.0
vc 78.0 78.0 78.0
s 0
f 1/1/1 2/2/1 3/4/1
f 2/3/2 34/66/2 3/5/2
f 1/1/1 3/4/1 4/6/1
f 3/5/3 34/66/3 4/7/3
f 1/1/1 4/6/1 5/8/1
f 4/7/4 34/66/4 5/9/4
f 1/1/1 5/8/1 6/10/1
f 5/9/5 34/66/5 6/11/5
f 1/1/1 6/10/1 7/12/1
f 6/11/6 34/66/6 7/13/6
f 1/1/1 7/12/1 8/14/1
f 7/13/7 34/66/7 8/15/7
f 1/1/1 8/14/1 9/16/1
f 8/15/8 34/66/8 9/17/8
f 1/1/1 9/16/1 10/18/1
f 9/17/9 34/66/9 10/19/9
f 1/1/1 10/18/1 11/20/1
f 10/19/10 34/66/10 11/21/10
f 1/1/1 11/20/1 12/22/1
f 11/21/11 34/66/11 12/23/11
f 1/1/1 12/22/1 13/24/1
f 12/23/12 34/66/12 13/25/12
f 1/1/1 13/24/1 14/26/1
f 13/25/13 34/66/13 14/27/13
f 1/1/1 14/26/1 15/28/1
f 14/27/14 34/66/14 15/29/14
f 1/1/1 15/28/1 16/30/1
f 15/29/15 34/66/15 16/31/15
f 1/1/1 16/30/1 17/32/1
f 16/31/16 34/66/16 17/33/16
f 1/1/1 17/32/1 18/34/1
f 17/33/17 34/66/17 18/35/17
f 1/1/1 18/34/1 19/36/1
f 18/35/18 34/66/18 19/37/18
f 1/1/1 19/36/1 20/38/1
f 19/37/19 34/66/19 20/39/19
f 1/1/1 20/38/1 21/40/1
f 20/39/20 34/66/20 21/41/20
f 1/1/1 21/40/1 22/42/1
f 21/41/21 34/66/21 22/43/21
f 1/1/1 22/42/1 23/44/1
f 22/43/22 34/66/22 23/45/22
f 1/1/1 23/44/1 24/46/1
f 23/45/23 34/66/23 24/47/23
f 1/1/1 24/46/1 25/48/1
f 24/47/24 34/66/24 25/49/24
f 1/1/1 25/48/1 26/50/1
f 25/49/25 34/66/25 26/51/25
f 1/1/1 26/50/1 27/52/1
f 26/51/26 34/66/26 27/53/26
f 1/1/1 27/52/1 28/54/1
f 27/53/27 34/66/27 28/55/27
f 1/1/1 28/54/1 29/56/1
f 28/55/28 34/66/28 29/57/28
f 1/1/1 29/56/1 30/58/1
f 29/57/29 34/66/29 30/59/29
f 1/1/1 30/58/1 31/60/1
f 30/59/30 34/66/30 31/61/30
f 1/1/1 31/60/1 32/62/1
f 31/61/31 34/66/31 32/63/31
f 1/1/1 32/62/1 33/64/1
f 32/63/32 34/66/32 33/65/32
f 1/1/1 33/64/1 2/2/1
f 33/65/33 34/66/33 2/3/33
