# Blender 3.5.1
# www.blender.org
o sst-ROADMARKS
v -12.972293 8.352103 -0.103300
v -12.972293 8.352103 0.038229
v -11.778930 8.352103 -0.103300
v -11.778930 8.352103 0.038229
v -6.369660 8.352103 -0.103300
v -6.369660 8.352103 0.038229
v -5.176297 8.352103 -0.103300
v -5.176297 8.352103 0.038229
v -8.625105 8.352103 -0.103300
v -8.625105 8.352103 0.038229
v -7.431742 8.352103 -0.103300
v -7.431742 8.352103 0.038229
v -10.825983 8.352103 -0.103300
v -10.825983 8.352103 0.038229
v -9.632620 8.352103 -0.103300
v -9.632620 8.352103 0.038229
v 6.346234 8.352103 0.066825
v 6.346234 8.352103 -0.074704
v 5.152873 8.352103 0.066825
v 5.152873 8.352103 -0.074704
v 12.948867 8.352103 0.066825
v 12.948867 8.352103 -0.074704
v 11.755506 8.352103 0.066825
v 11.755506 8.352103 -0.074704
v 10.802558 8.352103 0.066825
v 10.802558 8.352103 -0.074704
v 9.609197 8.352103 0.066825
v 9.609197 8.352103 -0.074704
v 8.601682 8.352103 0.066825
v 8.601682 8.352103 -0.074704
v 7.408319 8.352103 0.066825
v 7.408319 8.352103 -0.074704
v 0.040156 8.352103 -13.051683
v -0.101373 8.352103 -13.051683
v 0.040156 8.352103 -11.858320
v -0.101373 8.352103 -11.858320
v 0.040156 8.352103 -10.905375
v -0.101373 8.352103 -10.905375
v 0.040156 8.352103 -9.712009
v -0.101373 8.352103 -9.712009
v 0.040156 8.352103 -8.704496
v -0.101373 8.352103 -8.704496
v 0.040156 8.352103 -7.511134
v -0.101372 8.352103 -7.511134
v 0.040156 8.352103 -6.449051
v -0.101373 8.352103 -6.449051
v 0.040157 8.352103 -5.255688
v -0.101372 8.352103 -5.255688
v -0.096775 8.352103 6.333686
v 0.044754 8.352103 6.333686
v -0.096775 8.352103 5.140323
v 0.044754 8.352103 5.140323
v -0.096775 8.352103 10.703562
v 0.044754 8.352103 10.703562
v -0.096775 8.352103 9.510199
v 0.044754 8.352103 9.510199
v -0.096775 8.352103 12.849873
v 0.044754 8.352103 12.849873
v -0.096775 8.352103 11.656509
v 0.044754 8.352103 11.656509
v -0.096775 8.352103 8.502684
v 0.044754 8.352103 8.502684
v -0.096775 8.352103 7.309321
v 0.044754 8.352103 7.309321
vn -0.0000 1.0000 -0.0000
vt 0.000000 0.000000
vt 1.000000 0.000000
vt 0.000000 1.000000
vt 1.000000 1.000000
vt 0.000000 0.000000
vt 1.000000 0.000000
vt 0.000000 1.000000
vt 1.000000 1.000000
vt 0.000000 0.000000
vt 1.000000 0.000000
vt 0.000000 1.000000
vt 1.000000 1.000000
vt 0.000000 0.000000
vt 1.000000 0.000000
vt 0.000000 1.000000
vt 1.000000 1.000000
vt 0.000000 0.000000
vt 1.000000 0.000000
vt 0.000000 1.000000
vt 1.000000 1.000000
vt 0.000000 0.000000
vt 1.000000 0.000000
vt 0.000000 1.000000
vt 1.000000 1.000000
vt 0.000000 0.000000
vt 1.000000 0.000000
vt 0.000000 1.000000
vt 1.000000 1.000000
vt 0.000000 0.000000
vt 1.000000 0.000000
vt 0.000000 1.000000
vt 1.000000 1.000000
vt 0.000000 0.000000
vt 1.000000 0.000000
vt 0.000000 1.000000
vt 1.000000 1.000000
vt 0.000000 0.000000
vt 1.000000 0.000000
vt 0.000000 1.000000
vt 1.000000 1.000000
vt 0.000000 0.000000
vt 1.000000 0.000000
vt 0.000000 1.000000
vt 1.000000 1.000000
vt 0.000000 0.000000
vt 1.000000 0.000000
vt 0.000000 1.000000
vt 1.000000 1.000000
vt 0.000000 0.000000
vt 1.000000 0.000000
vt 0.000000 1.000000
vt 1.000000 1.000000
vt 0.000000 0.000000
vt 1.000000 0.000000
vt 0.000000 1.000000
vt 1.000000 1.000000
vt 0.000000 0.000000
vt 1.000000 0.000000
vt 0.000000 1.000000
vt 1.000000 1.000000
vt 0.000000 0.000000
vt 1.000000 0.000000
vt 0.000000 1.000000
vt 1.000000 1.000000
vc 255.0 255.0 255.0
vc 255.0 255.0 255.0
vc 255.0 255.0 255.0
vc 255.0 255.0 255.0
vc 255.0 255.0 255.0
vc 255.0 255.0 255.0
vc 255.0 255.0 255.0
vc 255.0 255.0 255.0
vc 255.0 255.0 255.0
vc 255.0 255.0 255.0
vc 255.0 255.0 255.0
vc 255.0 255.0 255.0
vc 255.0 255.0 255.0
vc 255.0 255.0 255.0
vc 255.0 255.0 255.0
vc 255.0 255.0 255.0
vc 255.0 255.0 255.0
vc 255.0 255.0 255.0
vc 255.0 255.0 255.0
vc 255.0 255.0 255.0
vc 255.0 255.0 255.0
vc 255.0 255.0 255.0
vc 255.0 255.0 255.0
vc 255.0 255.0 255.0
vc 255.0 255.0 255.0
vc 255.0 255.0 255.0
vc 255.0 255.0 255.0
vc 255.0 255.0 255.0
vc 255.0 255.0 255.0
vc 255.0 255.0 255.0
vc 255.0 255.0 255.0
vc 255.0 255.0 255.0
vc 255.0 255.0 255.0
vc 255.0 255.0 255.0
vc 255.0 255.0 255.0
vc 255.0 255.0 255.0
vc 255.0 255.0 255.0
vc 255.0 255.0 255.0
vc 255.0 255.0 255.0
vc 255.0 255.0 255.0
vc 255.0 255.0 255.0
vc 255.0 255.0 255.0
vc 255.0 255.0 255.0
vc 255.0 255.0 255.0
vc 255.0 255.0 255.0
vc 255.0 255.0 255.0
vc 255.0 255.0 255.0
vc 255.0 255.0 255.0
vc 255.0 255.0 255.0
vc 255.0 255.0 255.0
vc 255.0 255.0 255.0
vc 255.0 255.0 255.0
vc 255.0 255.0 255.0
vc 255.0 255.0 255.0
vc 255.0 255.0 255.0
vc 255.0 255.0 255.0
vc 255.0 255.0 255.0
vc 255.0 255.0 255.0
vc 255.0 255.0 255.0
vc 255.0 255.0 255.0
vc 255.0 255.0 255.0
vc 255.0 255.0 255.0
vc 255.0 255.0 255.0
vc 255.0 255.0 255.0
s 0
f 1/1/1 2/2/1 4/4/1 3/3/1
f 5/5/1 6/6/1 8/8/1 7/7/1
f 9/9/1 10/10/1 12/12/1 11/11/1
f 13/13/1 14/14/1 16/16/1 15/15/1
f 17/17/1 18/18/1 20/20/1 19/19/1
f 21/21/1 22/22/1 24/24/1 23/23/1
f 25/25/1 26/26/1 28/28/1 27/27/1
f 29/29/1 30/30/1 32/32/1 31/31/1
f 33/33/1 34/34/1 36/36/1 35/35/1
f 37/37/1 38/38/1 40/40/1 39/39/1
f 41/41/1 42/42/1 44/44/1 43/43/1
f 45/45/1 46/46/1 48/48/1 47/47/1
f 49/49/1 50/50/1 52/52/1 51/51/1
f 53/53/1 54/54/1 56/56/1 55/55/1
f 57/57/1 58/58/1 60/60/1 59/59/1
f 61/61/1 62/62/1 64/64/1 63/63/1
